<svg width="40" height="40" viewBox="0 0 40 40" fill="none" xmlns="http://www.w3.org/2000/svg">
<rect width="40" height="40" rx="4" fill="#5A5A5A"/>
<path d="M8.78822 25H5.25661V14.0909H8.90008C9.96897 14.0909 10.8869 14.3093 11.654 14.7461C12.421 15.1793 13.0087 15.8026 13.4171 16.6158C13.8291 17.4254 14.035 18.3967 14.035 19.5295C14.035 20.6658 13.8273 21.6424 13.4118 22.4592C12.9999 23.2759 12.4033 23.9045 11.622 24.3448C10.8408 24.7816 9.89617 25 8.78822 25ZM6.90257 23.5618H8.69767C9.52863 23.5618 10.2193 23.4055 10.7698 23.093C11.3202 22.777 11.7321 22.3207 12.0055 21.7241C12.279 21.1239 12.4157 20.3924 12.4157 19.5295C12.4157 18.6737 12.279 17.9474 12.0055 17.3509C11.7357 16.7543 11.3326 16.3015 10.7964 15.9925C10.2602 15.6836 9.59433 15.5291 8.79887 15.5291H6.90257V23.5618ZM24.808 19.5455C24.808 20.7102 24.5949 21.7116 24.1688 22.5497C23.7427 23.3842 23.1585 24.027 22.4163 24.478C21.6777 24.9254 20.8378 25.1491 19.8968 25.1491C18.9522 25.1491 18.1088 24.9254 17.3666 24.478C16.628 24.027 16.0456 23.3825 15.6195 22.5444C15.1933 21.7063 14.9802 20.7067 14.9802 19.5455C14.9802 18.3807 15.1933 17.381 15.6195 16.5465C16.0456 15.7085 16.628 15.0657 17.3666 14.6183C18.1088 14.1673 18.9522 13.9418 19.8968 13.9418C20.8378 13.9418 21.6777 14.1673 22.4163 14.6183C23.1585 15.0657 23.7427 15.7085 24.1688 16.5465C24.5949 17.381 24.808 18.3807 24.808 19.5455ZM23.178 19.5455C23.178 18.6577 23.0342 17.9102 22.7466 17.3029C22.4625 16.6921 22.0719 16.2305 21.5747 15.918C21.0811 15.6019 20.5218 15.4439 19.8968 15.4439C19.2682 15.4439 18.7072 15.6019 18.2136 15.918C17.7199 16.2305 17.3293 16.6921 17.0417 17.3029C16.7576 17.9102 16.6155 18.6577 16.6155 19.5455C16.6155 20.4332 16.7576 21.1825 17.0417 21.7933C17.3293 22.4006 17.7199 22.8622 18.2136 23.1783C18.7072 23.4908 19.2682 23.647 19.8968 23.647C20.5218 23.647 21.0811 23.4908 21.5747 23.1783C22.0719 22.8622 22.4625 22.4006 22.7466 21.7933C23.0342 21.1825 23.178 20.4332 23.178 19.5455ZM35.1709 17.6385H33.5089C33.445 17.2834 33.326 16.9709 33.152 16.701C32.978 16.4311 32.765 16.2021 32.5128 16.0138C32.2607 15.8256 31.9784 15.6836 31.6659 15.5877C31.3569 15.4918 31.0285 15.4439 30.6804 15.4439C30.0519 15.4439 29.489 15.6019 28.9919 15.918C28.4983 16.234 28.1076 16.6974 27.82 17.3082C27.5359 17.919 27.3939 18.6648 27.3939 19.5455C27.3939 20.4332 27.5359 21.1825 27.82 21.7933C28.1076 22.4041 28.5 22.8658 28.9972 23.1783C29.4944 23.4908 30.0537 23.647 30.6751 23.647C31.0196 23.647 31.3463 23.6009 31.6552 23.5085C31.9677 23.4126 32.25 23.2724 32.5022 23.0877C32.7543 22.9031 32.9674 22.6776 33.1414 22.4112C33.3189 22.1413 33.4415 21.8324 33.5089 21.4844L35.1709 21.4897C35.0821 22.0259 34.9098 22.5195 34.6542 22.9705C34.402 23.418 34.0771 23.805 33.6794 24.1317C33.2852 24.4549 32.8342 24.7053 32.3264 24.8828C31.8186 25.0604 31.2646 25.1491 30.6645 25.1491C29.7199 25.1491 28.8782 24.9254 28.1396 24.478C27.401 24.027 26.8186 23.3825 26.3924 22.5444C25.9699 21.7063 25.7586 20.7067 25.7586 19.5455C25.7586 18.3807 25.9716 17.381 26.3978 16.5465C26.8239 15.7085 27.4063 15.0657 28.1449 14.6183C28.8836 14.1673 29.7234 13.9418 30.6645 13.9418C31.2433 13.9418 31.7831 14.0252 32.2838 14.1921C32.788 14.3555 33.2408 14.5969 33.6421 14.9165C34.0434 15.2326 34.3754 15.6197 34.6382 16.0778C34.901 16.5323 35.0785 17.0526 35.1709 17.6385Z" fill="#111520"/>
</svg>
