<svg width="25" height="28" viewBox="0 0 25 28" fill="none" xmlns="http://www.w3.org/2000/svg">
<path fill-rule="evenodd" clip-rule="evenodd" d="M11.5477 0.268097C11.992 -0.0893657 12.6141 -0.0893657 13.0584 0.268097L24.1311 9.17719C24.4308 9.41831 24.6061 9.78907 24.6061 10.1818V24.1818C24.6061 25.1945 24.2172 26.1656 23.525 26.8817C22.8328 27.5977 21.894 28 20.9152 28H3.69091C2.71202 28 1.77322 27.5977 1.08104 26.8817C0.388862 26.1656 0 25.1945 0 24.1818V10.1818C0 9.78907 0.175285 9.41831 0.47497 9.17719L11.5477 0.268097ZM9.84242 25.4545H14.7636V15.2727H9.84242V25.4545ZM17.2242 25.4545V14C17.2242 13.2971 16.6734 12.7273 15.9939 12.7273H8.61212C7.93264 12.7273 7.38182 13.2971 7.38182 14V25.4545H3.69091C3.36461 25.4545 3.05168 25.3205 2.82095 25.0818C2.59023 24.8431 2.46061 24.5194 2.46061 24.1818V10.8043L12.303 2.8851L22.1455 10.8043V24.1818C22.1455 24.5194 22.0158 24.8431 21.7851 25.0818C21.5544 25.3205 21.2414 25.4545 20.9152 25.4545H17.2242Z" fill="#F4F4F4"/>
</svg>
