<svg width="40" height="40" viewBox="0 0 40 40" fill="none" xmlns="http://www.w3.org/2000/svg">
<rect width="40" height="40" rx="4" fill="#5A5A5A"/>
<path d="M9.22434 14.0909V25H7.57839V14.0909H9.22434ZM10.8714 14.0909H12.8689L16.3419 22.571H16.4697L19.9427 14.0909H21.9403V25H20.3742V17.1058H20.273L17.0557 24.984H15.7559L12.5386 17.1005H12.4374V25H10.8714V14.0909ZM30.9661 17.5373C30.8631 17.2141 30.7246 16.9247 30.5506 16.669C30.3801 16.4098 30.176 16.1896 29.938 16.0085C29.7001 15.8239 29.4284 15.6836 29.123 15.5877C28.8212 15.4918 28.4892 15.4439 28.127 15.4439C27.5126 15.4439 26.9586 15.6019 26.465 15.918C25.9714 16.234 25.5808 16.6974 25.2931 17.3082C25.0091 17.9155 24.867 18.6594 24.867 19.5401C24.867 20.4244 25.0108 21.1719 25.2985 21.7827C25.5861 22.3935 25.9803 22.8569 26.481 23.1729C26.9817 23.489 27.5517 23.647 28.1909 23.647C28.7839 23.647 29.3006 23.5263 29.7409 23.2848C30.1848 23.0433 30.5275 22.7024 30.769 22.2621C31.014 21.8182 31.1365 21.2962 31.1365 20.696L31.5627 20.7759H28.4412V19.4176H32.7292V20.6587C32.7292 21.5749 32.5339 22.3704 32.1433 23.0451C31.7562 23.7163 31.22 24.2347 30.5346 24.6005C29.8528 24.9663 29.0716 25.1491 28.1909 25.1491C27.2037 25.1491 26.3372 24.9219 25.5914 24.4673C24.8493 24.0128 24.2704 23.3683 23.8549 22.5337C23.4395 21.6957 23.2317 20.7013 23.2317 19.5508C23.2317 18.6808 23.3525 17.8995 23.5939 17.207C23.8354 16.5146 24.1745 15.9268 24.6113 15.4439C25.0517 14.9574 25.5684 14.5863 26.1614 14.3306C26.758 14.0714 27.4096 13.9418 28.1163 13.9418C28.7058 13.9418 29.2544 14.0288 29.7623 14.2028C30.2736 14.3768 30.7282 14.6236 31.1259 14.9432C31.5272 15.2628 31.8592 15.6428 32.122 16.0831C32.3848 16.5199 32.5623 17.0046 32.6547 17.5373H30.9661Z" fill="#111520"/>
</svg>
