<svg width="40" height="40" viewBox="0 0 40 40" fill="none" xmlns="http://www.w3.org/2000/svg">
<rect width="40" height="40" rx="4" fill="#5A5A5A"/>
<path d="M14.9757 25.1491C14.2442 25.1491 13.5908 25.0231 13.0155 24.771C12.4438 24.5188 11.991 24.169 11.6572 23.7216C11.3269 23.2706 11.1494 22.7486 11.1245 22.1555H12.7971C12.8184 22.4787 12.9267 22.7592 13.122 22.9972C13.3209 23.2315 13.5801 23.4126 13.8997 23.5405C14.2193 23.6683 14.5744 23.7322 14.9651 23.7322C15.3948 23.7322 15.7747 23.6577 16.105 23.5085C16.4388 23.3594 16.6998 23.1516 16.888 22.8853C17.0762 22.6154 17.1703 22.3047 17.1703 21.9531C17.1703 21.5874 17.0762 21.266 16.888 20.989C16.7033 20.7085 16.4317 20.4883 16.073 20.3285C15.7179 20.1687 15.2882 20.0888 14.784 20.0888H13.8624V18.7464H14.784C15.1888 18.7464 15.5439 18.6737 15.8493 18.5281C16.1582 18.3825 16.3997 18.18 16.5737 17.9208C16.7477 17.658 16.8347 17.3509 16.8347 16.9993C16.8347 16.6619 16.7584 16.369 16.6057 16.1204C16.4565 15.8683 16.2435 15.6712 15.9665 15.5291C15.693 15.3871 15.3699 15.3161 14.997 15.3161C14.6419 15.3161 14.3099 15.3817 14.0009 15.5131C13.6955 15.641 13.447 15.8256 13.2552 16.0671C13.0634 16.305 12.9604 16.5909 12.9462 16.9247H11.3536C11.3713 16.3352 11.5453 15.8168 11.8756 15.3693C12.2094 14.9219 12.6497 14.5721 13.1966 14.32C13.7435 14.0678 14.3507 13.9418 15.0183 13.9418C15.7179 13.9418 16.3216 14.0785 16.8294 14.3519C17.3408 14.6218 17.735 14.9822 18.0119 15.4332C18.2925 15.8842 18.431 16.3778 18.4274 16.9141C18.431 17.5249 18.2605 18.0433 17.9161 18.4695C17.5752 18.8956 17.1206 19.1815 16.5524 19.3271V19.4123C17.2769 19.5224 17.8379 19.81 18.2357 20.2752C18.6369 20.7404 18.8358 21.3175 18.8323 22.0064C18.8358 22.6065 18.6689 23.1445 18.3315 23.6204C17.9977 24.0962 17.5414 24.4709 16.9626 24.7443C16.3837 25.0142 15.7215 25.1491 14.9757 25.1491ZM23.7765 25H20.2449V14.0909H23.8884C24.9573 14.0909 25.8752 14.3093 26.6423 14.7461C27.4093 15.1793 27.997 15.8026 28.4054 16.6158C28.8173 17.4254 29.0233 18.3967 29.0233 19.5295C29.0233 20.6658 28.8156 21.6424 28.4001 22.4592C27.9881 23.2759 27.3916 23.9045 26.6103 24.3448C25.8291 24.7816 24.8845 25 23.7765 25ZM21.8908 23.5618H23.6859C24.5169 23.5618 25.2076 23.4055 25.758 23.093C26.3085 22.777 26.7204 22.3207 26.9938 21.7241C27.2673 21.1239 27.404 20.3924 27.404 19.5295C27.404 18.6737 27.2673 17.9474 26.9938 17.3509C26.7239 16.7543 26.3209 16.3015 25.7847 15.9925C25.2484 15.6836 24.5826 15.5291 23.7872 15.5291H21.8908V23.5618Z" fill="#111520"/>
</svg>
