<svg width="37" height="37" viewBox="0 0 37 37" fill="none" xmlns="http://www.w3.org/2000/svg">
<circle cx="18.5" cy="18.5" r="18" fill="#F4F4F4" stroke="#171717"/>
<path d="M28.4444 11.6C25.5444 12.405 22.1444 12.75 19 12.75C15.8556 12.75 12.4556 12.405 9.55556 11.6L9 13.9C11.0667 14.475 13.4444 14.8545 15.6667 15.05V30H17.8889V23.1H20.1111V30H22.3333V15.05C24.5556 14.8545 26.9333 14.475 29 13.9L28.4444 11.6ZM19 11.6C20.2222 11.6 21.2222 10.565 21.2222 9.3C21.2222 8.035 20.2222 7 19 7C17.7778 7 16.7778 8.035 16.7778 9.3C16.7778 10.565 17.7778 11.6 19 11.6Z" fill="#171717"/>
</svg>
