<svg width="161" height="30" viewBox="0 0 161 30" fill="none" xmlns="http://www.w3.org/2000/svg">
<path d="M0.0316252 29V27.992C1.75963 27.992 2.76763 27.672 3.05563 27.032V2.888C2.76763 2.248 1.75963 1.928 0.0316252 1.928V0.919998H11.0716C15.3276 0.919998 18.7516 2.216 21.3436 4.808C23.9356 7.368 25.2316 10.728 25.2316 14.888C25.2316 19.048 23.9676 22.44 21.4396 25.064C18.9116 27.688 15.6476 29 11.6476 29H0.0316252ZM7.47163 2.312V27.368H11.6476C12.6716 27.368 13.6636 27.144 14.6236 26.696C15.6156 26.216 16.5596 25.512 17.4556 24.584C18.3516 23.656 19.0716 22.36 19.6156 20.696C20.1596 19.032 20.4316 17.112 20.4316 14.936C20.4316 10.776 19.4876 7.64 17.5996 5.528C15.7436 3.384 13.5676 2.312 11.0716 2.312H7.47163ZM29.0004 29V27.992C30.7284 27.992 31.7364 27.672 32.0244 27.032V2.888C31.7364 2.248 30.7284 1.928 29.0004 1.928V0.919998H39.4644V1.928C37.7364 1.928 36.7284 2.248 36.4404 2.888V27.032C36.7284 27.672 37.7364 27.992 39.4644 27.992V29H29.0004ZM58.1326 2.072C55.3806 2.072 53.0126 3.368 51.0286 5.96C49.0446 8.52 48.0526 11.624 48.0526 15.272C48.0526 17.48 48.3406 19.432 48.9166 21.128C49.4926 22.824 50.2606 24.152 51.2206 25.112C52.1806 26.04 53.1886 26.728 54.2446 27.176C55.3006 27.624 56.3726 27.848 57.4606 27.848C59.2526 27.848 60.9486 27.544 62.5486 26.936V17.096C62.2606 16.456 61.2526 16.136 59.5246 16.136V15.128H69.9886V16.136C68.2606 16.136 67.2526 16.456 66.9646 17.096V25.16C66.4206 26.184 65.3166 27.16 63.6526 28.088C62.0206 29.016 59.9246 29.48 57.3646 29.48C53.0766 29.48 49.6206 28.088 46.9966 25.304C44.3726 22.52 43.0606 19.208 43.0606 15.368C43.0606 10.92 44.5646 7.32 47.5726 4.568C50.5806 1.816 54.0846 0.439999 58.0846 0.439999C59.0126 0.439999 60.1646 0.679998 61.5406 1.16C62.9166 1.64 63.7006 1.88 63.8926 1.88C64.2766 1.88 64.4686 1.56 64.4686 0.919998H65.5726L66.0526 7.016H64.9966C64.8046 5.608 64.1006 4.44 62.8846 3.512C61.6686 2.552 60.0846 2.072 58.1326 2.072ZM72.7816 29V27.992C74.5096 27.992 75.5176 27.672 75.8056 27.032V2.888C75.5176 2.248 74.5096 1.928 72.7816 1.928V0.919998H83.2456V1.928C81.5176 1.928 80.5096 2.248 80.2216 2.888V27.032C80.5096 27.672 81.5176 27.992 83.2456 27.992V29H72.7816ZM87.266 29V27.992C88.994 27.992 90.002 27.672 90.29 27.032V2.888C90.002 2.248 88.994 1.928 87.266 1.928V0.919998H97.73V1.928C96.002 1.928 94.994 2.248 94.706 2.888V27.368H105.65C106.45 27.016 107.17 26.008 107.81 24.344H108.77L107.618 29H87.266ZM125.144 29V27.992C126.616 27.992 127.544 27.8 127.928 27.416L125.24 20.072H116.024L113.528 27.128C113.848 27.704 114.84 27.992 116.504 27.992V29H108.632V27.992C110.424 27.992 111.432 27.656 111.656 26.984L120.968 0.919998H123.272L132.584 26.984C132.808 27.656 133.832 27.992 135.656 27.992V29H125.144ZM120.584 7.304L116.6 18.488H124.664L120.584 7.304ZM144.675 15.08V27.368H148.755C153.235 27.368 155.475 25.192 155.475 20.84C155.475 19.336 154.915 18.008 153.795 16.856C152.675 15.672 150.803 15.08 148.179 15.08H144.675ZM144.675 2.552V13.688H146.643C151.123 13.688 153.363 11.656 153.363 7.592C153.363 4.232 150.931 2.552 146.067 2.552H144.675ZM137.235 29V27.992C138.963 27.992 139.971 27.672 140.259 27.032V2.888C139.971 2.248 138.963 1.928 137.235 1.928V0.919998H146.067C150.067 0.919998 153.075 1.576 155.091 2.888C157.139 4.2 158.163 5.752 158.163 7.544C158.163 10.808 156.467 13.016 153.075 14.168C155.475 14.712 157.267 15.608 158.451 16.856C159.667 18.072 160.275 19.384 160.275 20.792C160.275 23.224 159.299 25.208 157.347 26.744C155.427 28.248 152.563 29 148.755 29H137.235Z" fill="#002F5F"/>
</svg>
