<svg width="30" height="34" viewBox="0 0 30 34" fill="none" xmlns="http://www.w3.org/2000/svg">
<path fill-rule="evenodd" clip-rule="evenodd" d="M14.0791 0.325547C14.6208 -0.108516 15.3792 -0.108516 15.9209 0.325547L29.4209 11.1437C29.7863 11.4365 30 11.8867 30 12.3636V29.3636C30 30.5933 29.5259 31.7726 28.682 32.642C27.8381 33.5115 26.6935 34 25.5 34H4.5C3.30653 34 2.16193 33.5115 1.31802 32.642C0.474106 31.7726 0 30.5933 0 29.3636V12.3636C0 11.8867 0.213709 11.4365 0.579089 11.1437L14.0791 0.325547ZM12 30.9091H18V18.5455H12V30.9091ZM21 30.9091V17C21 16.1465 20.3284 15.4545 19.5 15.4545H10.5C9.67157 15.4545 9 16.1465 9 17V30.9091H4.5C4.10218 30.9091 3.72064 30.7463 3.43934 30.4564C3.15804 30.1666 3 29.7735 3 29.3636V13.1195L15 3.50333L27 13.1195V29.3636C27 29.7735 26.842 30.1666 26.5607 30.4564C26.2794 30.7463 25.8978 30.9091 25.5 30.9091H21Z" fill="black"/>
</svg>
