<svg width="30" height="30" viewBox="0 0 30 30" fill="none" xmlns="http://www.w3.org/2000/svg">
<path fill-rule="evenodd" clip-rule="evenodd" d="M25.767 2.71232C25.3637 2.71232 24.9769 2.87253 24.6917 3.15771L12.0738 15.7756L11.357 18.643L14.2244 17.9262L26.8423 5.30829C27.1275 5.02311 27.2877 4.63631 27.2877 4.233C27.2877 3.82969 27.1275 3.4429 26.8423 3.15771C26.5571 2.87253 26.1703 2.71232 25.767 2.71232ZM22.7738 1.23982C23.5677 0.445976 24.6443 0 25.767 0C26.8897 0 27.9663 0.445976 28.7602 1.23982C29.554 2.03366 30 3.11034 30 4.233C30 5.35567 29.554 6.43235 28.7602 7.22619L15.8767 20.1097C15.7029 20.2835 15.4851 20.4068 15.2467 20.4664L9.82202 21.8226C9.35988 21.9381 8.871 21.8027 8.53416 21.4658C8.19731 21.129 8.0619 20.6401 8.17744 20.178L9.5336 14.7533C9.59321 14.5149 9.71651 14.2971 9.89031 14.1233L22.7738 1.23982ZM1.19163 4.06847C1.95462 3.30549 2.98945 2.87684 4.06847 2.87684H13.5616C14.3106 2.87684 14.9177 3.48402 14.9177 4.233C14.9177 4.98199 14.3106 5.58916 13.5616 5.58916H4.06847C3.7088 5.58916 3.36385 5.73204 3.10952 5.98637C2.8552 6.2407 2.71232 6.58564 2.71232 6.94532V25.9315C2.71232 26.2912 2.8552 26.6361 3.10952 26.8905C3.36385 27.1448 3.7088 27.2877 4.06847 27.2877H23.0547C23.4144 27.2877 23.7593 27.1448 24.0136 26.8905C24.268 26.6361 24.4108 26.2912 24.4108 25.9315V16.4384C24.4108 15.6894 25.018 15.0823 25.767 15.0823C26.516 15.0823 27.1232 15.6894 27.1232 16.4384V25.9315C27.1232 27.0106 26.6945 28.0454 25.9315 28.8084C25.1685 29.5714 24.1337 30 23.0547 30H4.06847C2.98945 30 1.95461 29.5714 1.19163 28.8084C0.428641 28.0454 0 27.0106 0 25.9315V6.94532C0 5.86629 0.428641 4.83146 1.19163 4.06847Z" fill="black"/>
</svg>
