<svg width="29" height="37" viewBox="0 0 29 37" fill="none" xmlns="http://www.w3.org/2000/svg">
<path d="M9.0625 14.8H10.875C11.3557 14.8 11.8167 14.6051 12.1566 14.2581C12.4965 13.9112 12.6875 13.4407 12.6875 12.95C12.6875 12.4593 12.4965 11.9888 12.1566 11.6419C11.8167 11.2949 11.3557 11.1 10.875 11.1H9.0625C8.58179 11.1 8.12078 11.2949 7.78087 11.6419C7.44096 11.9888 7.25 12.4593 7.25 12.95C7.25 13.4407 7.44096 13.9112 7.78087 14.2581C8.12078 14.6051 8.58179 14.8 9.0625 14.8ZM9.0625 18.5C8.58179 18.5 8.12078 18.6949 7.78087 19.0419C7.44096 19.3888 7.25 19.8594 7.25 20.35C7.25 20.8407 7.44096 21.3112 7.78087 21.6581C8.12078 22.0051 8.58179 22.2 9.0625 22.2H19.9375C20.4182 22.2 20.8792 22.0051 21.2191 21.6581C21.559 21.3112 21.75 20.8407 21.75 20.35C21.75 19.8594 21.559 19.3888 21.2191 19.0419C20.8792 18.6949 20.4182 18.5 19.9375 18.5H9.0625ZM29 12.839C28.9811 12.669 28.9447 12.5016 28.8913 12.3395V12.173C28.8041 11.9828 28.6879 11.8079 28.5469 11.655L17.6719 0.555C17.522 0.4111 17.3507 0.29245 17.1644 0.2035C17.1103 0.195656 17.0554 0.195656 17.0012 0.2035C16.8171 0.0957213 16.6138 0.0265368 16.4031 0H5.4375C3.99539 0 2.61234 0.584731 1.59261 1.62556C0.572878 2.66638 0 4.07805 0 5.55V31.45C0 32.922 0.572878 34.3336 1.59261 35.3744C2.61234 36.4153 3.99539 37 5.4375 37H23.5625C25.0046 37 26.3877 36.4153 27.4074 35.3744C28.4271 34.3336 29 32.922 29 31.45V12.95C29 12.95 29 12.95 29 12.839ZM18.125 6.3085L22.8194 11.1H19.9375C19.4568 11.1 18.9958 10.9051 18.6559 10.5581C18.316 10.2112 18.125 9.74065 18.125 9.25V6.3085ZM25.375 31.45C25.375 31.9407 25.184 32.4112 24.8441 32.7581C24.5042 33.1051 24.0432 33.3 23.5625 33.3H5.4375C4.9568 33.3 4.49578 33.1051 4.15587 32.7581C3.81596 32.4112 3.625 31.9407 3.625 31.45V5.55C3.625 5.05935 3.81596 4.5888 4.15587 4.24185C4.49578 3.89491 4.9568 3.7 5.4375 3.7H14.5V9.25C14.5 10.722 15.0729 12.1336 16.0926 13.1744C17.1123 14.2153 18.4954 14.8 19.9375 14.8H25.375V31.45ZM19.9375 25.9H9.0625C8.58179 25.9 8.12078 26.0949 7.78087 26.4419C7.44096 26.7888 7.25 27.2593 7.25 27.75C7.25 28.2407 7.44096 28.7112 7.78087 29.0581C8.12078 29.4051 8.58179 29.6 9.0625 29.6H19.9375C20.4182 29.6 20.8792 29.4051 21.2191 29.0581C21.559 28.7112 21.75 28.2407 21.75 27.75C21.75 27.2593 21.559 26.7888 21.2191 26.4419C20.8792 26.0949 20.4182 25.9 19.9375 25.9Z" fill="#262627"/>
</svg>
