<svg width="34" height="34" viewBox="0 0 34 34" fill="none" xmlns="http://www.w3.org/2000/svg">
<path fill-rule="evenodd" clip-rule="evenodd" d="M17 2.83333C16.6243 2.83333 16.2639 2.98259 15.9983 3.24827C15.7326 3.51394 15.5833 3.87428 15.5833 4.25V4.49648C15.5804 5.22863 15.3635 5.94394 14.9592 6.55437C14.5549 7.1648 13.981 7.6437 13.3081 7.93211C13.1883 7.98345 13.0623 8.0179 12.9336 8.03472C12.3221 8.24885 11.6639 8.30163 11.0231 8.18544C10.285 8.05162 9.60394 7.69975 9.06771 7.17522L9.05654 7.1643L8.9716 7.07923C8.84003 6.94752 8.68323 6.84247 8.51125 6.77118C8.33927 6.69988 8.15492 6.66319 7.96875 6.66319C7.78258 6.66319 7.59823 6.69988 7.42625 6.77118C7.25427 6.84247 7.09803 6.94696 6.96646 7.07868L6.96534 7.07979C6.83363 7.21136 6.72914 7.3676 6.65784 7.53958C6.58655 7.71157 6.54985 7.89591 6.54985 8.08208C6.54985 8.26826 6.58655 8.4526 6.65784 8.62458C6.72914 8.79656 6.83363 8.9528 6.96534 9.08437L7.06195 9.18098C7.58648 9.71721 7.93828 10.3983 8.07211 11.1364C8.20328 11.8598 8.1191 12.6055 7.83055 13.2809C7.56768 13.9702 7.10739 14.5671 6.50682 14.9967C5.8941 15.4349 5.16372 15.6787 4.41063 15.6963L4.3775 15.6967H4.25C3.87428 15.6967 3.51394 15.8459 3.24827 16.1116C2.98259 16.3773 2.83333 16.7376 2.83333 17.1133C2.83333 17.4891 2.98259 17.8494 3.24827 18.1151C3.51394 18.3807 3.87428 18.53 4.25 18.53H4.49648C5.22863 18.5329 5.94394 18.7499 6.55437 19.1541C7.16268 19.557 7.64037 20.1283 7.9291 20.7983C8.22953 21.4827 8.31882 22.2413 8.18544 22.9769C8.05162 23.715 7.69975 24.3961 7.17522 24.9323L7.16429 24.9435L7.07923 25.0284C6.94752 25.16 6.84247 25.3168 6.77118 25.4888C6.69988 25.6607 6.66319 25.8451 6.66319 26.0312C6.66319 26.2174 6.69988 26.4018 6.77118 26.5737C6.84247 26.7457 6.94696 26.902 7.07868 27.0335L7.07979 27.0347C7.21136 27.1664 7.3676 27.2709 7.53958 27.3422C7.71157 27.4135 7.89591 27.4501 8.08208 27.4501C8.26825 27.4501 8.4526 27.4135 8.62458 27.3422C8.79657 27.2709 8.95281 27.1664 9.08437 27.0347L9.18098 26.938C9.71721 26.4135 10.3983 26.0617 11.1364 25.9279C11.8598 25.7967 12.6054 25.8809 13.2809 26.1694C13.9702 26.4323 14.5671 26.8926 14.9967 27.4932C15.4349 28.1059 15.6787 28.8363 15.6963 29.5894L15.6967 29.6225V29.75C15.6967 30.1257 15.8459 30.4861 16.1116 30.7517C16.3773 31.0174 16.7376 31.1667 17.1133 31.1667C17.4891 31.1667 17.8494 31.0174 18.1151 30.7517C18.3807 30.4861 18.53 30.1257 18.53 29.75V29.5092L18.53 29.5035C18.5329 28.7714 18.7499 28.0561 19.1541 27.4456C19.557 26.8373 20.1284 26.3596 20.7984 26.0708C21.4828 25.7705 22.2414 25.6812 22.9769 25.8146C23.715 25.9484 24.3961 26.3002 24.9323 26.8248L24.9435 26.8357L25.0284 26.9208C25.16 27.0525 25.3168 27.1575 25.4888 27.2288C25.6607 27.3001 25.8451 27.3368 26.0312 27.3368C26.2174 27.3368 26.4018 27.3001 26.5737 27.2288C26.7457 27.1575 26.902 27.053 27.0335 26.9213L27.0347 26.9202C27.1664 26.7886 27.2709 26.6324 27.3422 26.4604C27.4135 26.2884 27.4501 26.1041 27.4501 25.9179C27.4501 25.7317 27.4135 25.5474 27.3422 25.3754C27.2709 25.2034 27.1664 25.0472 27.0347 24.9156L26.938 24.819C26.4135 24.2828 26.0617 23.6017 25.9279 22.8636C25.7945 22.128 25.8838 21.3695 26.1842 20.6851C26.4729 20.0151 26.9506 19.4437 27.559 19.0408C28.1694 18.6365 28.8847 18.4196 29.6168 18.4167L29.6225 18.4167L29.75 18.4167C30.1257 18.4167 30.4861 18.2674 30.7517 18.0017C31.0174 17.7361 31.1667 17.3757 31.1667 17C31.1667 16.6243 31.0174 16.2639 30.7517 15.9983C30.4861 15.7326 30.1257 15.5833 29.75 15.5833H29.5092L29.5035 15.5833C28.7714 15.5804 28.0561 15.3635 27.4456 14.9592C26.8352 14.5549 26.3563 13.981 26.0679 13.3081C26.0165 13.1883 25.9821 13.0623 25.9653 12.9336C25.7512 12.3221 25.6984 11.6639 25.8146 11.0231C25.9484 10.285 26.3002 9.60394 26.8248 9.06771L26.8357 9.05654L26.9208 8.9716C27.0525 8.84003 27.1575 8.68323 27.2288 8.51125C27.3001 8.33927 27.3368 8.15492 27.3368 7.96875C27.3368 7.78258 27.3001 7.59823 27.2288 7.42625C27.1575 7.25427 27.053 7.09803 26.9213 6.96646L26.9202 6.96534C26.7886 6.83363 26.6324 6.72913 26.4604 6.65784C26.2884 6.58655 26.1041 6.54985 25.9179 6.54985C25.7317 6.54985 25.5474 6.58655 25.3754 6.65784C25.2034 6.72914 25.0472 6.83363 24.9156 6.96534L24.819 7.06195C24.2828 7.58648 23.6017 7.93828 22.8636 8.07211C22.128 8.20549 21.3694 8.1162 20.6849 7.81577C20.015 7.52703 19.4436 7.04934 19.0408 6.44104C18.6365 5.83061 18.4196 5.1153 18.4167 4.38315L18.4167 4.3775V4.25C18.4167 3.87428 18.2674 3.51394 18.0017 3.24827C17.7361 2.98259 17.3757 2.83333 17 2.83333ZM13.9948 1.2448C14.7918 0.447767 15.8728 0 17 0C18.1272 0 19.2082 0.447767 20.0052 1.2448C20.8022 2.04183 21.25 3.12283 21.25 4.25V4.37396C21.2511 4.5528 21.3043 4.72747 21.4031 4.87661C21.5022 5.02634 21.643 5.14381 21.8081 5.21455L21.822 5.22054C21.9904 5.29483 22.177 5.31706 22.3581 5.28424C22.5371 5.25177 22.7025 5.16699 22.8334 5.04066L22.911 4.96299C23.3058 4.56784 23.7745 4.25436 24.2904 4.04049C24.8064 3.82661 25.3594 3.71652 25.9179 3.71652C26.4764 3.71652 27.0295 3.82661 27.5454 4.04049C28.0614 4.25436 28.5301 4.56784 28.9248 4.96299C29.3194 5.35747 29.6325 5.8258 29.8462 6.34125C30.0601 6.85719 30.1701 7.41023 30.1701 7.96875C30.1701 8.52727 30.0601 9.08031 29.8462 9.59625C29.6324 10.1119 29.3191 10.5805 28.9242 10.9751C28.924 10.9753 28.9244 10.9749 28.9242 10.9751L28.846 11.0533C28.7197 11.1841 28.6349 11.3495 28.6024 11.5286C28.5696 11.7096 28.5918 11.8963 28.6661 12.0647C28.7061 12.1554 28.7364 12.2498 28.7566 12.3463C28.8236 12.4451 28.9096 12.5304 29.0101 12.5969C29.1592 12.6957 29.3339 12.7489 29.5127 12.75H29.75C30.8772 12.75 31.9582 13.1978 32.7552 13.9948C33.5522 14.7918 34 15.8728 34 17C34 18.1272 33.5522 19.2082 32.7552 20.0052C31.9582 20.8022 30.8772 21.25 29.75 21.25H29.626C29.4472 21.2511 29.2725 21.3043 29.1234 21.4031C28.9737 21.5022 28.8562 21.643 28.7854 21.8081L28.7795 21.822C28.7052 21.9904 28.6829 22.177 28.7158 22.3581C28.7482 22.5371 28.833 22.7025 28.9593 22.8333L29.037 22.911C29.0368 22.9109 29.0372 22.9112 29.037 22.911C29.4319 23.3056 29.7457 23.7747 29.9595 24.2904C30.1734 24.8064 30.2835 25.3594 30.2835 25.9179C30.2835 26.4764 30.1734 27.0295 29.9595 27.5454C29.7456 28.0614 29.4322 28.5301 29.037 28.9248L28.0358 27.9225L29.0381 28.9237C28.6434 29.3188 28.1747 29.6323 27.6587 29.8462C27.1428 30.0601 26.5898 30.1701 26.0312 30.1701C25.4727 30.1701 24.9197 30.0601 24.4038 29.8462C23.8881 29.6324 23.4195 29.3191 23.0249 28.9242C23.0247 28.924 23.0251 28.9244 23.0249 28.9242L22.9467 28.846C22.8158 28.7197 22.6505 28.6349 22.4714 28.6024C22.2904 28.5696 22.1037 28.5918 21.9353 28.6661L21.9214 28.6722C21.7564 28.7429 21.6156 28.8603 21.5164 29.0101C21.4176 29.1592 21.3645 29.3339 21.3633 29.5127V29.75C21.3633 30.8772 20.9156 31.9582 20.1185 32.7552C19.3215 33.5522 18.2405 34 17.1133 34C15.9862 34 14.9052 33.5522 14.1081 32.7552C13.3111 31.9582 12.8633 30.8772 12.8633 29.75V29.6428C12.8566 29.4627 12.7971 29.2883 12.6921 29.1415C12.5846 28.9912 12.4344 28.8767 12.261 28.8129C12.233 28.8026 12.2053 28.7914 12.178 28.7794C12.0097 28.7051 11.823 28.6829 11.6419 28.7158C11.4628 28.7482 11.2974 28.833 11.1666 28.9594L11.089 29.037C11.0888 29.0372 11.0891 29.0368 11.089 29.037C10.6944 29.4319 10.2253 29.7457 9.70958 29.9595C9.19364 30.1734 8.6406 30.2835 8.08208 30.2835C7.52356 30.2835 6.97053 30.1734 6.45459 29.9595C5.93913 29.7458 5.4708 29.4328 5.07632 29.0381C4.68117 28.6434 4.3677 28.1747 4.15382 27.6587C3.93994 27.1428 3.82985 26.5898 3.82985 26.0312C3.82985 25.4727 3.93994 24.9197 4.15382 24.4038C4.3677 23.8878 4.68117 23.4191 5.07632 23.0244L5.15399 22.9467C5.28032 22.8159 5.3651 22.6505 5.39757 22.4714C5.43039 22.2904 5.40823 22.1037 5.33394 21.9353L5.32781 21.9214C5.25707 21.7564 5.13968 21.6156 4.98995 21.5164C4.84081 21.4176 4.66614 21.3645 4.48729 21.3633H4.25C3.12283 21.3633 2.04183 20.9156 1.2448 20.1185C0.447767 19.3215 0 18.2405 0 17.1133C0 15.9862 0.447767 14.9052 1.2448 14.1081C2.04183 13.3111 3.12283 12.8633 4.25 12.8633H4.35715C4.53735 12.8566 4.71171 12.7971 4.85853 12.6921C5.00882 12.5846 5.12329 12.4344 5.18707 12.261C5.19738 12.233 5.20856 12.2053 5.22061 12.178C5.2949 12.0097 5.31706 11.823 5.28424 11.6419C5.25177 11.4628 5.16698 11.2975 5.04064 11.1666L4.96299 11.089C4.56784 10.6942 4.25436 10.2255 4.04049 9.70958C3.82661 9.19364 3.71652 8.6406 3.71652 8.08208C3.71652 7.52357 3.82661 6.97053 4.04049 6.45459C4.25426 5.93889 4.56754 5.47036 4.96243 5.07577C5.35703 4.68088 5.82555 4.3676 6.34125 4.15382C6.85719 3.93994 7.41023 3.82985 7.96875 3.82985C8.52727 3.82985 9.0803 3.93994 9.59625 4.15382C10.1122 4.3677 10.5809 4.68117 10.9756 5.07632L11.0533 5.15397C11.1841 5.28031 11.3495 5.3651 11.5286 5.39757C11.7096 5.43039 11.8963 5.40823 12.0647 5.33394C12.1554 5.2939 12.2498 5.26361 12.3463 5.2434C12.4451 5.17635 12.5304 5.09041 12.5969 4.98995C12.6957 4.84081 12.7489 4.66614 12.75 4.48729V4.25C12.75 3.12283 13.1978 2.04183 13.9948 1.2448ZM17 14.1667C15.4352 14.1667 14.1667 15.4352 14.1667 17C14.1667 18.5648 15.4352 19.8333 17 19.8333C18.5648 19.8333 19.8333 18.5648 19.8333 17C19.8333 15.4352 18.5648 14.1667 17 14.1667ZM11.3333 17C11.3333 13.8704 13.8704 11.3333 17 11.3333C20.1296 11.3333 22.6667 13.8704 22.6667 17C22.6667 20.1296 20.1296 22.6667 17 22.6667C13.8704 22.6667 11.3333 20.1296 11.3333 17Z" fill="black"/>
</svg>
