<svg width="41" height="37" viewBox="0 0 41 37" fill="none" xmlns="http://www.w3.org/2000/svg">
<path fill-rule="evenodd" clip-rule="evenodd" d="M21.3923 0.295558C20.7355 -0.0985194 19.915 -0.0985194 19.2582 0.295558L1.00711 11.2462C0.20774 11.7258 -0.173404 12.6799 0.0754363 13.5783C0.324277 14.4767 1.14195 15.0986 2.07417 15.0986H4.56283V32.852H2.07417C0.928738 32.852 0.000181525 33.7806 0.000181525 34.926C0.000181525 36.0714 0.928738 37 2.07417 37H6.62599L6.63682 37L6.64765 37H15.7517L15.7626 37L15.7734 37H24.8772L24.888 37L24.8989 37H34.0027L34.0135 37L34.0244 37H38.5764C39.7218 37 40.6504 36.0714 40.6504 34.926C40.6504 33.7806 39.7218 32.852 38.5764 32.852H36.0875V15.0986H38.5764C39.5086 15.0986 40.3263 14.4767 40.5751 13.5783C40.8239 12.6799 40.4428 11.7258 39.6434 11.2462L21.3923 0.295558ZM31.9395 15.0986H26.962V32.852H31.9395V15.0986ZM22.8141 15.0986V32.852H17.8365V15.0986H22.8141ZM13.6886 15.0986H8.71081V32.852H13.6886V15.0986ZM20.3253 4.49265L31.0886 10.9507H9.56193L20.3253 4.49265Z" fill="#262627"/>
</svg>
