<svg width="24" height="37" viewBox="0 0 24 37" fill="none" xmlns="http://www.w3.org/2000/svg">
<path d="M23.7877 21.5955C23.417 17.941 22.0617 15.0428 19.6461 12.7346C19.2019 12.3096 18.83 11.7162 18.5157 11.1928C17.5561 9.59109 17.3209 8.18153 17.7753 6.75389L17.7957 6.68833C17.8432 6.53799 17.8771 6.44417 17.8997 6.38539C17.9178 6.38539 17.9359 6.38652 17.9528 6.38652C18.0715 6.38652 18.1879 6.36391 18.2998 6.31983C19.8518 5.84169 20.7742 4.36996 20.547 2.73207C20.3277 1.15636 18.96 0.00904286 17.2949 0.00452143C15.9091 0.00113036 14.4487 0 12.8289 0C10.7253 0 8.659 0.00226072 6.73966 0.00565179C6.39829 0.00565179 6.07727 0.0486054 5.7845 0.131122C4.27774 0.557266 3.32258 1.95439 3.46275 3.52672C3.59274 4.98601 4.68014 6.15367 6.13265 6.41817C6.51358 7.43436 6.57801 8.37595 6.3316 9.28928C5.95745 10.6774 5.17524 11.9671 3.94202 13.232C2.93939 14.2606 2.18205 15.3299 1.62705 16.5021C0.780408 18.2903 0.296615 20.2888 0.104454 22.7925C-0.0108426 24.2936 -0.104662 26.0412 0.245749 27.7684C0.839187 30.6937 2.1877 33.497 4.36816 36.3376C4.81918 36.9254 5.41375 36.9944 5.82181 36.9944H5.82972C6.86626 36.9921 7.9028 36.9921 8.93933 36.9921H10.4461H10.5094H12.0139C12.5361 36.9921 13.0595 36.9921 13.5817 36.9921H13.723C14.1955 36.9921 14.6736 36.9921 15.154 36.9921C16.3895 36.9921 17.3277 36.9943 18.1947 37L18.1992 36.7739C18.1992 36.7739 18.2015 36.7739 18.2026 36.7739V37H18.2105C18.9 37 19.4279 36.7253 19.7795 36.185C19.9886 35.864 20.2113 35.5362 20.4272 35.2208L20.4339 35.2106C20.8804 34.555 21.3416 33.8768 21.7486 33.1624C23.1491 30.696 23.8488 28.5404 23.9527 26.3792C24.0217 24.9391 23.9674 23.3758 23.7866 21.5977L23.7877 21.5955ZM8.78334 8.9886C8.94725 8.29683 8.8896 7.16195 8.83534 6.50747H15.2106C15.1744 7.2049 15.1484 8.4449 15.3745 9.12651C15.4773 9.43736 15.5971 9.83298 15.691 10.1529H8.40128C8.53354 9.8262 8.68274 9.41249 8.78334 8.9886ZM7.01998 3.8127C6.83913 3.8127 6.6108 3.80591 6.45594 3.75731C6.205 3.67818 6.06709 3.42159 6.11457 3.11979C6.15752 2.84172 6.37794 2.66651 6.68766 2.66312C7.19067 2.65747 7.74228 2.65521 8.42163 2.65521C8.79917 2.65521 9.17445 2.65521 9.54521 2.65634H9.65372C9.977 2.65634 10.3014 2.65747 10.6236 2.65747H10.7434H12.0139C12.5452 2.65747 13.0742 2.65747 13.6043 2.65747C14.0972 2.65747 14.5979 2.65747 15.1009 2.65747C15.9442 2.65747 16.6314 2.6586 17.2633 2.66199C17.5007 2.66312 17.6928 2.73547 17.807 2.86659C17.9065 2.98075 17.9449 3.13561 17.92 3.32551C17.8884 3.56402 17.7041 3.75618 17.4713 3.79122C17.3492 3.80931 17.209 3.81835 17.0146 3.81835C15.3632 3.81835 13.7852 3.82061 12.2456 3.82061C10.2743 3.82061 8.61379 3.81948 7.01998 3.81609V3.8127ZM17.8386 34.3425C16.7558 34.3357 15.683 34.3357 14.8647 34.3357C14.3888 34.3357 13.914 34.3357 13.4461 34.3357H12.0173H10.5897C10.1149 34.3357 9.6345 34.3357 9.15184 34.3357C7.95479 34.3357 7.03581 34.338 6.18465 34.3425C4.40547 31.8919 3.34632 29.6425 2.85462 27.2688C2.56524 25.875 2.6455 24.3988 2.75288 23.0062C2.87948 21.3592 3.12929 19.4422 4.01888 17.7116C4.40773 16.9565 4.95595 16.224 5.48722 15.5153L5.60591 15.357C5.97101 14.8699 6.40507 14.394 6.82556 13.9328L6.84365 13.9124C6.9013 13.8491 6.95895 13.7858 7.01659 13.7237C8.71891 13.718 10.5218 13.7158 12.5237 13.7158C14.1571 13.7158 15.6853 13.718 17.0214 13.7192C17.1514 13.8672 17.2825 14.0153 17.4136 14.1623C17.998 14.8224 18.6028 15.504 19.1374 16.2037C20.2135 17.6155 20.8533 19.3404 21.0918 21.4779C21.293 23.2842 21.3608 24.8396 21.2987 26.2333C21.1981 28.4873 20.1943 30.514 19.3318 32.0276C19.0447 32.5317 18.7056 33.037 18.3778 33.5264L18.3699 33.5388C18.1947 33.8 18.0138 34.069 17.8386 34.3425Z" fill="#262627"/>
</svg>
