<?xml version="1.0" encoding="UTF-8"?>
<svg id="Layer_2" data-name="Layer 2" xmlns="http://www.w3.org/2000/svg" viewBox="0 0 26.87 26.87">
  <defs>
    <style>
      .cls-1 {
        fill: #000;
      }

      .cls-1, .cls-2 {
        stroke-width: 0px;
      }

      .cls-2 {
        fill: #868384;
      }
    </style>
  </defs>
  <g id="Layer_1-2" data-name="Layer 1">
    <g>
      <g>
        <polyline class="cls-2" points="1.63 8.08 14.23 4.84 14.23 11.03 .54 14.64"/>
        <path class="cls-1" d="M.67,15.12l-.25-.97,13.31-3.51v-5.16L1.75,8.56l-.25-.97,12.6-3.24c.15-.04.31,0,.43.09.12.09.19.24.19.4v6.19c0,.23-.15.43-.37.48L.67,15.12Z"/>
      </g>
      <g>
        <polyline class="cls-2" points="25.66 17.87 11.57 21.67 11.57 15.48 26.02 11.49"/>
        <path class="cls-1" d="M11.57,22.17c-.11,0-.22-.04-.3-.1-.12-.09-.2-.24-.2-.4v-6.19c0-.22.15-.42.37-.48l14.45-3.99.27.96-14.08,3.89v5.16l13.46-3.63.26.96-14.09,3.8s-.09.02-.13.02Z"/>
      </g>
      <path class="cls-1" d="M13.43,1c6.86,0,12.43,5.58,12.43,12.43s-5.58,12.43-12.43,12.43S1,20.29,1,13.43,6.58,1,13.43,1M13.43,0C6.01,0,0,6.01,0,13.43s6.01,13.43,13.43,13.43,13.43-6.01,13.43-13.43S20.85,0,13.43,0h0Z"/>
    </g>
  </g>
</svg>