<?xml version="1.0" encoding="UTF-8"?>
<svg id="Layer_2" data-name="Layer 2" xmlns="http://www.w3.org/2000/svg" viewBox="0 0 23.51 23.51">
  <defs>
    <style>
      .cls-1 {
        fill: #000;
      }

      .cls-1, .cls-2, .cls-3 {
        stroke-width: 0px;
      }

      .cls-2 {
        fill: #888687;
      }

      .cls-3 {
        fill: #fff;
      }
    </style>
  </defs>
  <g id="Layer_1-2" data-name="Layer 1">
    <g>
      <circle class="cls-2" cx="11.75" cy="11.74" r="11.57"/>
      <polygon class="cls-3" points="11.05 .46 11.05 8.3 7.57 8.3 7.57 15.37 11.05 15.37 11.05 23.01 13.66 23.01 17.34 21.87 19.37 20.08 21.55 17.32 22.95 14.22 22.95 11.32 22.13 7.3 19.96 3.96 16.22 1.26 11.75 .46 11.05 .46"/>
      <path class="cls-1" d="M11.75.87c6,0,10.88,4.88,10.88,10.88s-4.88,10.88-10.88,10.88S.87,17.75.87,11.75,5.76.87,11.75.87M11.75,0C5.26,0,0,5.26,0,11.75s5.26,11.75,11.75,11.75,11.75-5.26,11.75-11.75S18.25,0,11.75,0h0Z"/>
      <g>
        <rect class="cls-2" x="14.73" y="9.17" width="5.23" height="5.23"/>
        <path class="cls-1" d="M20.46,14.9h-6.23v-6.23h6.23v6.23ZM15.23,13.9h4.23v-4.23h-4.23v4.23Z"/>
      </g>
      <rect class="cls-1" x="7.57" y="11.82" width="6.44" height=".25"/>
      <polygon class="cls-1" points="11.55 23.01 10.55 23.01 10.55 15.87 7.07 15.87 7.07 7.8 10.55 7.8 10.55 .46 11.55 .46 11.55 8.8 8.07 8.8 8.07 14.87 11.55 14.87 11.55 23.01"/>
    </g>
  </g>
</svg>