<svg width="161" height="30" viewBox="0 0 161 30" fill="none" xmlns="http://www.w3.org/2000/svg">
<path d="M0.531625 29V27.992C2.25963 27.992 3.26763 27.672 3.55563 27.032V2.888C3.26763 2.248 2.25963 1.928 0.531625 1.928V0.919998H11.5716C15.8276 0.919998 19.2516 2.216 21.8436 4.808C24.4356 7.368 25.7316 10.728 25.7316 14.888C25.7316 19.048 24.4676 22.44 21.9396 25.064C19.4116 27.688 16.1476 29 12.1476 29H0.531625ZM7.97163 2.312V27.368H12.1476C13.1716 27.368 14.1636 27.144 15.1236 26.696C16.1156 26.216 17.0596 25.512 17.9556 24.584C18.8516 23.656 19.5716 22.36 20.1156 20.696C20.6596 19.032 20.9316 17.112 20.9316 14.936C20.9316 10.776 19.9876 7.64 18.0996 5.528C16.2436 3.384 14.0676 2.312 11.5716 2.312H7.97163ZM29.5004 29V27.992C31.2284 27.992 32.2364 27.672 32.5244 27.032V2.888C32.2364 2.248 31.2284 1.928 29.5004 1.928V0.919998H39.9644V1.928C38.2364 1.928 37.2284 2.248 36.9404 2.888V27.032C37.2284 27.672 38.2364 27.992 39.9644 27.992V29H29.5004ZM58.6326 2.072C55.8806 2.072 53.5126 3.368 51.5286 5.96C49.5446 8.52 48.5526 11.624 48.5526 15.272C48.5526 17.48 48.8406 19.432 49.4166 21.128C49.9926 22.824 50.7606 24.152 51.7206 25.112C52.6806 26.04 53.6886 26.728 54.7446 27.176C55.8006 27.624 56.8726 27.848 57.9606 27.848C59.7526 27.848 61.4486 27.544 63.0486 26.936V17.096C62.7606 16.456 61.7526 16.136 60.0246 16.136V15.128H70.4886V16.136C68.7606 16.136 67.7526 16.456 67.4646 17.096V25.16C66.9206 26.184 65.8166 27.16 64.1526 28.088C62.5206 29.016 60.4246 29.48 57.8646 29.48C53.5766 29.48 50.1206 28.088 47.4966 25.304C44.8726 22.52 43.5606 19.208 43.5606 15.368C43.5606 10.92 45.0646 7.32 48.0726 4.568C51.0806 1.816 54.5846 0.439999 58.5846 0.439999C59.5126 0.439999 60.6646 0.679998 62.0406 1.16C63.4166 1.64 64.2006 1.88 64.3926 1.88C64.7766 1.88 64.9686 1.56 64.9686 0.919998H66.0726L66.5526 7.016H65.4966C65.3046 5.608 64.6006 4.44 63.3846 3.512C62.1686 2.552 60.5846 2.072 58.6326 2.072ZM73.2816 29V27.992C75.0096 27.992 76.0176 27.672 76.3056 27.032V2.888C76.0176 2.248 75.0096 1.928 73.2816 1.928V0.919998H83.7456V1.928C82.0176 1.928 81.0096 2.248 80.7216 2.888V27.032C81.0096 27.672 82.0176 27.992 83.7456 27.992V29H73.2816ZM87.766 29V27.992C89.494 27.992 90.502 27.672 90.79 27.032V2.888C90.502 2.248 89.494 1.928 87.766 1.928V0.919998H98.23V1.928C96.502 1.928 95.494 2.248 95.206 2.888V27.368H106.15C106.95 27.016 107.67 26.008 108.31 24.344H109.27L108.118 29H87.766ZM125.644 29V27.992C127.116 27.992 128.044 27.8 128.428 27.416L125.74 20.072H116.524L114.028 27.128C114.348 27.704 115.34 27.992 117.004 27.992V29H109.132V27.992C110.924 27.992 111.932 27.656 112.156 26.984L121.468 0.919998H123.772L133.084 26.984C133.308 27.656 134.332 27.992 136.156 27.992V29H125.644ZM121.084 7.304L117.1 18.488H125.164L121.084 7.304ZM145.175 15.08V27.368H149.255C153.735 27.368 155.975 25.192 155.975 20.84C155.975 19.336 155.415 18.008 154.295 16.856C153.175 15.672 151.303 15.08 148.679 15.08H145.175ZM145.175 2.552V13.688H147.143C151.623 13.688 153.863 11.656 153.863 7.592C153.863 4.232 151.431 2.552 146.567 2.552H145.175ZM137.735 29V27.992C139.463 27.992 140.471 27.672 140.759 27.032V2.888C140.471 2.248 139.463 1.928 137.735 1.928V0.919998H146.567C150.567 0.919998 153.575 1.576 155.591 2.888C157.639 4.2 158.663 5.752 158.663 7.544C158.663 10.808 156.967 13.016 153.575 14.168C155.975 14.712 157.767 15.608 158.951 16.856C160.167 18.072 160.775 19.384 160.775 20.792C160.775 23.224 159.799 25.208 157.847 26.744C155.927 28.248 153.063 29 149.255 29H137.735Z" fill="#F4F4F4"/>
</svg>
