<svg width="31" height="31" viewBox="0 0 31 31" fill="none" xmlns="http://www.w3.org/2000/svg">
<path fill-rule="evenodd" clip-rule="evenodd" d="M2.89558 14.0909H8.52513C8.84105 10.1973 10.1442 6.45987 12.2953 3.22658C7.28332 4.5316 3.47765 8.82547 2.89558 14.0909ZM15.5 3.59431C13.1473 6.62545 11.7078 10.2678 11.3539 14.0909H19.6461C19.2922 10.2678 17.8527 6.62545 15.5 3.59431ZM19.6461 16.9091C19.2922 20.7322 17.8527 24.3745 15.5 27.4057C13.1473 24.3745 11.7078 20.7322 11.3539 16.9091H19.6461ZM8.52513 16.9091H2.89558C3.47765 22.1745 7.28332 26.4684 12.2953 27.7734C10.1442 24.5401 8.84105 20.8027 8.52513 16.9091ZM18.7047 27.7734C20.8558 24.5401 22.1589 20.8027 22.4749 16.9091H28.1044C27.5224 22.1745 23.7167 26.4684 18.7047 27.7734ZM28.1044 14.0909H22.4749C22.1589 10.1973 20.8558 6.45987 18.7047 3.22658C23.7167 4.5316 27.5224 8.82547 28.1044 14.0909ZM0 15.5C0 6.93959 6.93959 0 15.5 0C24.0604 0 31 6.93959 31 15.5C31 24.0604 24.0604 31 15.5 31C6.93959 31 0 24.0604 0 15.5Z" fill="#171717"/>
</svg>
