<?xml version="1.0" ?>
<svg xmlns="http://www.w3.org/2000/svg" width="27" height="31" viewBox="0 0 27 31" fill="none">
  <path fill-rule="evenodd" clip-rule="evenodd" d="M13.5 3.1C11.0147 3.1 9 5.18188 9 7.75C9 10.3181 11.0147 12.4 13.5 12.4C15.9853 12.4 18 10.3181 18 7.75C18 5.18188 15.9853 3.1 13.5 3.1ZM6 7.75C6 3.46979 9.35786 0 13.5 0C17.6421 0 21 3.46979 21 7.75C21 12.0302 17.6421 15.5 13.5 15.5C9.35786 15.5 6 12.0302 6 7.75ZM2.1967 20.8699C3.60322 19.4165 5.51088 18.6 7.5 18.6H19.5C21.4891 18.6 23.3968 19.4165 24.8033 20.8699C26.2098 22.3233 27 24.2946 27 26.35V29.45C27 30.306 26.3284 31 25.5 31C24.6716 31 24 30.306 24 29.45V26.35C24 25.1167 23.5259 23.934 22.682 23.062C21.8381 22.1899 20.6935 21.7 19.5 21.7H7.5C6.30653 21.7 5.16193 22.1899 4.31802 23.062C3.47411 23.934 3 25.1167 3 26.35V29.45C3 30.306 2.32843 31 1.5 31C0.671573 31 0 30.306 0 29.45V26.35C0 24.2946 0.790176 22.3233 2.1967 20.8699Z" fill="#000000"/>
</svg>
